<mxfile host="65bd71144e">
    <diagram id="V7hC7Ia_DJyM14xFZ34Q" name="Page-1">
        <mxGraphModel dx="3923" dy="1317" grid="1" gridSize="10" guides="1" tooltips="1" connect="1" arrows="1" fold="1" page="1" pageScale="1" pageWidth="850" pageHeight="1100" math="0" shadow="0">
            <root>
                <mxCell id="0"/>
                <mxCell id="1" parent="0"/>
                <mxCell id="74" value="" style="whiteSpace=wrap;html=1;fontSize=23;dashed=1;" parent="1" vertex="1">
                    <mxGeometry x="-725" y="290" width="495" height="770" as="geometry"/>
                </mxCell>
                <mxCell id="69" value="" style="whiteSpace=wrap;html=1;fontSize=23;dashed=1;" parent="1" vertex="1">
                    <mxGeometry x="-1260" y="280" width="500" height="780" as="geometry"/>
                </mxCell>
                <mxCell id="46" value="&lt;font&gt;&lt;span style=&quot;font-size: 35px&quot;&gt;Unidirectional Tunnel&lt;/span&gt;&lt;br&gt;&lt;br&gt;&lt;span style=&quot;font-size: 24px&quot;&gt;Each direction have different rule&lt;/span&gt;&lt;br&gt;&lt;/font&gt;" style="text;html=1;align=center;verticalAlign=middle;resizable=0;points=[];autosize=1;strokeColor=none;fillColor=none;" parent="1" vertex="1">
                    <mxGeometry x="-945" y="175" width="370" height="60" as="geometry"/>
                </mxCell>
                <mxCell id="48" value="&lt;font&gt;&lt;span style=&quot;font-size: 35px&quot;&gt;Bidirectional Tunnel&lt;/span&gt;&lt;br&gt;&lt;br&gt;&lt;span style=&quot;font-size: 24px&quot;&gt;One rule for both direction&lt;/span&gt;&lt;br&gt;&lt;/font&gt;" style="text;html=1;align=center;verticalAlign=middle;resizable=0;points=[];autosize=1;strokeColor=none;fillColor=none;" parent="1" vertex="1">
                    <mxGeometry x="225" y="170" width="320" height="60" as="geometry"/>
                </mxCell>
                <mxCell id="55" value="&lt;font style=&quot;font-size: 23px;&quot;&gt;ipTunnelRule&lt;br style=&quot;font-size: 23px;&quot;&gt;&lt;br style=&quot;font-size: 23px;&quot;&gt;&lt;u style=&quot;font-size: 23px;&quot;&gt;Match:&lt;/u&gt;&lt;br style=&quot;font-size: 23px;&quot;&gt;SIP: 1.2.3.4&lt;br style=&quot;font-size: 23px;&quot;&gt;&lt;br style=&quot;font-size: 23px;&quot;&gt;&lt;u style=&quot;font-size: 23px;&quot;&gt;Tunnel:&lt;/u&gt;&lt;br style=&quot;font-size: 23px;&quot;&gt;GENEVEEncap&lt;br style=&quot;font-size: 23px;&quot;&gt;&lt;br style=&quot;font-size: 23px;&quot;&gt;SMAC&lt;br style=&quot;font-size: 23px;&quot;&gt;DMAC&lt;br style=&quot;font-size: 23px;&quot;&gt;VNI 100&lt;br style=&quot;font-size: 23px;&quot;&gt;&lt;/font&gt;" style="whiteSpace=wrap;html=1;fontSize=23;" parent="1" vertex="1">
                    <mxGeometry x="-1114.5" y="310" width="219" height="290" as="geometry"/>
                </mxCell>
                <mxCell id="63" value="&lt;font style=&quot;font-size: 23px;&quot;&gt;ipTunnelRule&lt;br style=&quot;font-size: 23px;&quot;&gt;&lt;br style=&quot;font-size: 23px;&quot;&gt;&lt;u style=&quot;font-size: 23px;&quot;&gt;Match:&lt;/u&gt;&lt;br style=&quot;font-size: 23px;&quot;&gt;GENEVE VNI: 100&lt;br style=&quot;font-size: 23px;&quot;&gt;&lt;br style=&quot;font-size: 23px;&quot;&gt;&lt;u style=&quot;font-size: 23px;&quot;&gt;Tunnel:&lt;/u&gt;&lt;br style=&quot;font-size: 23px;&quot;&gt;GENEVEDecap&lt;br style=&quot;font-size: 23px;&quot;&gt;&lt;/font&gt;" style="whiteSpace=wrap;html=1;fontSize=23;" parent="1" vertex="1">
                    <mxGeometry x="-604.5" y="330" width="219" height="250" as="geometry"/>
                </mxCell>
                <mxCell id="65" style="edgeStyle=none;html=1;exitX=0.5;exitY=1;exitDx=0;exitDy=0;fontSize=23;entryX=0.5;entryY=0;entryDx=0;entryDy=0;" parent="1" source="64" target="66" edge="1">
                    <mxGeometry relative="1" as="geometry">
                        <mxPoint x="-1005.2857142857142" y="939.9999999999998" as="targetPoint"/>
                    </mxGeometry>
                </mxCell>
                <mxCell id="64" value="Packet w/o GENEVE&amp;nbsp;&lt;br style=&quot;font-size: 23px;&quot;&gt;SIP: 1.2.3.4" style="whiteSpace=wrap;html=1;fontSize=23;" parent="1" vertex="1">
                    <mxGeometry x="-1200" y="700" width="390" height="60" as="geometry"/>
                </mxCell>
                <mxCell id="66" value="Packet w/ GENEVE VNI 100" style="whiteSpace=wrap;html=1;fontSize=23;" parent="1" vertex="1">
                    <mxGeometry x="-1200" y="960" width="390" height="60" as="geometry"/>
                </mxCell>
                <mxCell id="71" style="edgeStyle=none;html=1;exitX=0.5;exitY=0;exitDx=0;exitDy=0;entryX=0.5;entryY=1;entryDx=0;entryDy=0;fontSize=23;" parent="1" source="67" target="70" edge="1">
                    <mxGeometry relative="1" as="geometry"/>
                </mxCell>
                <mxCell id="67" value="Packet w/ GENEVE VNI 100" style="whiteSpace=wrap;html=1;fontSize=23;" parent="1" vertex="1">
                    <mxGeometry x="-670" y="970" width="390" height="60" as="geometry"/>
                </mxCell>
                <mxCell id="70" value="Packet w/o GENEVE&amp;nbsp;" style="whiteSpace=wrap;html=1;fontSize=23;" parent="1" vertex="1">
                    <mxGeometry x="-670" y="700" width="390" height="60" as="geometry"/>
                </mxCell>
                <mxCell id="72" value="ipTunnel&lt;br style=&quot;font-size: 23px;&quot;&gt;Encapsulation" style="text;html=1;align=center;verticalAlign=middle;resizable=0;points=[];autosize=1;strokeColor=none;fillColor=none;fontSize=23;" parent="1" vertex="1">
                    <mxGeometry x="-985" y="820" width="160" height="60" as="geometry"/>
                </mxCell>
                <mxCell id="73" value="ipTunnel&lt;br style=&quot;font-size: 23px;&quot;&gt;Decapsulation" style="text;html=1;align=center;verticalAlign=middle;resizable=0;points=[];autosize=1;strokeColor=none;fillColor=none;fontSize=23;" parent="1" vertex="1">
                    <mxGeometry x="-445" y="820" width="160" height="60" as="geometry"/>
                </mxCell>
                <mxCell id="76" value="" style="endArrow=none;html=1;fontSize=21;strokeWidth=7;" parent="1" edge="1">
                    <mxGeometry width="50" height="50" relative="1" as="geometry">
                        <mxPoint x="-170" y="1080" as="sourcePoint"/>
                        <mxPoint x="-170" y="140" as="targetPoint"/>
                    </mxGeometry>
                </mxCell>
                <mxCell id="78" value="&lt;font style=&quot;font-size: 24px&quot;&gt;ipTunnelRule&lt;br style=&quot;font-size: 24px&quot;&gt;&lt;br style=&quot;font-size: 24px&quot;&gt;&lt;u style=&quot;font-size: 24px&quot;&gt;Match:&lt;/u&gt;&lt;br style=&quot;font-size: 24px&quot;&gt;SIP: 1.1.1.1&lt;br style=&quot;font-size: 24px&quot;&gt;&lt;br style=&quot;font-size: 24px&quot;&gt;&lt;u style=&quot;font-size: 24px&quot;&gt;Tunnel:&lt;/u&gt;&lt;br style=&quot;font-size: 24px&quot;&gt;NAT&amp;nbsp;&lt;br&gt;&lt;br&gt;&lt;u&gt;NAT Tunnel:&lt;/u&gt;&lt;br style=&quot;font-size: 24px&quot;&gt;SIP: 5.6.7.8&lt;br style=&quot;font-size: 24px&quot;&gt;&lt;/font&gt;" style="whiteSpace=wrap;html=1;fontSize=24;" parent="1" vertex="1">
                    <mxGeometry x="300" y="510" width="219" height="290" as="geometry"/>
                </mxCell>
                <mxCell id="82" style="edgeStyle=none;html=1;exitX=0.5;exitY=1;exitDx=0;exitDy=0;entryX=0.5;entryY=0;entryDx=0;entryDy=0;fontSize=24;strokeWidth=1;" parent="1" source="79" target="81" edge="1">
                    <mxGeometry relative="1" as="geometry"/>
                </mxCell>
                <mxCell id="79" value="Packet with:&lt;br style=&quot;font-size: 24px&quot;&gt;SIP: 4.2.3.1&lt;br style=&quot;font-size: 24px&quot;&gt;DIP 1.2.3.4&lt;br&gt;Original SPORT &amp;amp; DPORT" style="whiteSpace=wrap;html=1;fontSize=24;" parent="1" vertex="1">
                    <mxGeometry x="-120" y="430" width="390" height="100" as="geometry"/>
                </mxCell>
                <mxCell id="81" value="Packet:&lt;br style=&quot;font-size: 24px;&quot;&gt;SIP 5.6.7.8&lt;br style=&quot;font-size: 24px;&quot;&gt;DIP 1.2.3.4&lt;br style=&quot;font-size: 24px;&quot;&gt;SPort: 4368 (Assigned by NAT)" style="whiteSpace=wrap;html=1;fontSize=24;" parent="1" vertex="1">
                    <mxGeometry x="-120" y="820" width="390" height="120" as="geometry"/>
                </mxCell>
                <mxCell id="83" value="Egress&lt;br&gt;NAT" style="text;html=1;align=center;verticalAlign=middle;resizable=0;points=[];autosize=1;strokeColor=none;fillColor=none;fontSize=31;" parent="1" vertex="1">
                    <mxGeometry x="85" y="620" width="110" height="80" as="geometry"/>
                </mxCell>
                <mxCell id="84" value="Ingress&lt;br&gt;NAT" style="text;html=1;align=center;verticalAlign=middle;resizable=0;points=[];autosize=1;strokeColor=none;fillColor=none;fontSize=31;" parent="1" vertex="1">
                    <mxGeometry x="620" y="650" width="120" height="80" as="geometry"/>
                </mxCell>
                <mxCell id="85" value="&lt;u style=&quot;font-size: 24px;&quot;&gt;Packet with:&lt;br style=&quot;font-size: 24px;&quot;&gt;&lt;/u&gt;SIP 1.2.3.4&lt;br style=&quot;font-size: 24px;&quot;&gt;DIP 5.6.7.8&lt;br style=&quot;font-size: 24px;&quot;&gt;DPort: 4368" style="whiteSpace=wrap;html=1;fontSize=24;" parent="1" vertex="1">
                    <mxGeometry x="560" y="440" width="390" height="110" as="geometry"/>
                </mxCell>
                <mxCell id="86" value="Packet with:&lt;br style=&quot;font-size: 24px&quot;&gt;SIP 1.2.3.4&lt;br style=&quot;font-size: 24px&quot;&gt;DIP 4.2.3.1&lt;br&gt;Original SPORT &amp;amp; DPORT" style="whiteSpace=wrap;html=1;fontSize=24;" parent="1" vertex="1">
                    <mxGeometry x="570" y="830" width="390" height="100" as="geometry"/>
                </mxCell>
                <mxCell id="87" style="edgeStyle=none;html=1;entryX=0.5;entryY=0;entryDx=0;entryDy=0;fontSize=24;strokeWidth=1;" parent="1" target="86" edge="1">
                    <mxGeometry relative="1" as="geometry">
                        <mxPoint x="765" y="550" as="sourcePoint"/>
                    </mxGeometry>
                </mxCell>
            </root>
        </mxGraphModel>
    </diagram>
</mxfile>